<?xml version="1.0" encoding="utf-8"?>
<!-- Generator: Adobe Illustrator 19.0.0, SVG Export Plug-In . SVG Version: 6.00 Build 0)  -->
<svg version="1.1" id="Layer_1" xmlns="http://www.w3.org/2000/svg" xmlns:xlink="http://www.w3.org/1999/xlink" x="0px" y="0px"
	 viewBox="0 0 100 83.5" style="enable-background:new 0 0 100 83.5;" xml:space="preserve">
<style type="text/css">
	.st0{fill:#FFFFFF;}
</style>
<path id="XMLID_41_" class="st0" d="M4.5,49.6c1.8-2.2,4.2-3.4,6.9-4c1.6-0.4,3.4-0.4,5.1-0.6c0-0.8,0-1.8,0-2.8c-1.3,0-2.5,0-3.8,0
	c-1.7,0-2.2-0.5-2.2-2.2c0-1.2,0-2.4,0-3.6c0-1.2,0.6-1.8,1.8-1.8c1.6,0,1.6,0,2.1-1.6c1.9-5.6,4.1-11.1,7.6-15.9
	c1.9-2.7,4.2-5,7.4-6.2c0.9-0.3,1.9-0.6,2.9-0.6c15.7,0,31.5-0.1,47.2,0c3.3,0,6.1,1.7,8.5,4c2.9,2.8,4.4,6.2,4.4,10.3
	c0,2.9,0,5.9,0,8.8c0,1.1-0.2,1.2-1.3,1.2c-8.3,0-16.5,0-24.8,0c-1.1,0-1.3-0.2-1.3-1.3c0-4.2,0-8.3,0-12.5c0-1.2-0.1-1.3-1.3-1.3
	c-4.6,0-9.3,0-13.9,0c-1.2,0-1.3,0.1-1.3,1.3c0,10.2,0,20.5,0,30.7c0,1.2,0.1,1.3,1.3,1.3c2.7,0,5.4,0,8.1,0c1,0,1.2-0.1,1.2-1.2
	c0-1.4,0-2.7,0-4.1c0-1,0.3-1.7,1-2.4c1.5-1.4,2.9-2.9,4.4-4.3c0.5-0.5,0.7-1,0.7-1.7c0-1.3,0.1-1.4,1.3-1.4c8.2,0,16.4,0,24.7,0
	c1.2,0,1.3,0.1,1.3,1.3c0,0.5,0,1,0,1.5c0,0.1,0,0.1,0.1,0.3c0.4,0,0.9,0,1.4,0c0.9,0,1.5,0.6,1.5,1.5c0,2,0,4,0,6
	c0,0.9-0.6,1.5-1.5,1.5c-0.5,0-0.9,0-1.5,0c0,0.4,0,0.7,0,1c0,3,0,5.9,0,8.9c0,1.8-0.5,2.3-2.3,2.3c-0.3,0-0.5,0-0.8,0
	c-0.3,0.9-0.5,1.8-0.9,2.6c-1.7,4-5.8,6.6-10,6.5c-4.4-0.2-8.3-3-9.7-7.2c-0.2-0.6-0.2-1.5-0.6-1.7c-0.5-0.3-1.4-0.2-2.1-0.2
	c-12.1,0-24.2,0-36.3,0c-0.3,0-0.6,0-0.9,0c-1.1-0.1-1.6-0.6-1.7-1.8c-0.1-1.9-0.3-3.8-1.2-5.6c-1.8-3.4-4.9-5.3-8.5-6
	c-3.7-0.8-7,0.1-10,2.5c-1.3,1.1-1.9,1-3-0.2C4.5,50.3,4.5,49.9,4.5,49.6z M36.5,34.5c2.6,0,5.1,0,7.7,0c1,0,1.2-0.2,1.2-1.2
	c0-4.3,0-8.5,0-12.8c0-0.8-0.3-1.1-1.2-1.1c-3.9,0-7.9,0-11.8,0c-0.8,0-1.1,0.3-1.3,1c-1.1,4.2-2.3,8.4-3.4,12.6
	c-0.3,1.1-0.1,1.5,1.1,1.5C31.4,34.5,34,34.5,36.5,34.5z M28.5,18.7c-0.3-0.3-0.7-0.7-1.1-1c-1.3-0.9-1.3-0.9-2.3,0.4
	c-2.7,3.6-4.6,7.6-6.2,11.8c-0.2,0.6,0,1,0.6,1.3c1.2,0.6,2.5,1.2,3.7,1.8c1.1,0.5,1.4,0.4,1.7-0.8c0.9-3.4,1.9-6.9,2.8-10.3
	C27.9,20.9,28.1,19.9,28.5,18.7z M86,61.8c-4.8,0-9.7,0-14.5,0c0.4,3.3,3.9,6.1,7.5,5.9C82.6,67.6,85.9,64.7,86,61.8z"/>
<path id="XMLID_38_" class="st0" d="M4.5,59.5c0.3-0.9,0.5-1.9,0.9-2.7c1.8-3.9,6-6.2,10.3-5.6c4.2,0.6,7.5,3.9,8.3,8.1
	c0.9,5.3-2.6,10.3-7.8,11.3c-5.4,1-10.5-2.5-11.6-7.8c0-0.2-0.1-0.3-0.2-0.5C4.5,61.4,4.5,60.5,4.5,59.5z M14.4,67.7
	c3.7,0,6.8-3,6.8-6.7c0-3.7-3.1-6.8-6.8-6.8c-3.7,0-6.9,3.1-6.9,6.8C7.6,64.7,10.7,67.7,14.4,67.7z"/>
</svg>
